<svg xmlns="http://www.w3.org/2000/svg" xmlns:xlink="http://www.w3.org/1999/xlink" x="0px" y="0px" viewBox="0 0 137.3 125.8" style="enable-background:new 0 0 137.3 125.8;" xml:space="preserve"><path class="st0" fill="#28B79A" d="M74.4,10.1c15.9-9.2,35.2-13,54.9-7.8l8,2.2l-0.2,8.3c-0.7,22.3-5.6,41.9-14.7,59.2  c-5.5,10.4-12.6,19.9-21.2,28.5c3.8-7.5,6.1-15.8,6.5-24.8c0.3-6.2-0.2-12.4-1.6-18.4c5-10.9,8.2-22.9,9.4-36.1  c-8.8-0.8-17.3,0.9-25.1,4.3c-2.3-2.9-4.8-5.6-7.4-8.1C80.3,14.9,77.4,12.4,74.4,10.1"></path><path class="st1" fill="#2F3CA6" d="M36.1,100.5c-8-8.1-14.7-16.9-20.1-26.5C6.2,56.2,0.9,35.9,0.2,12.9L0,4.5l8-2.2c24.9-6.7,50.6,1.1,69.2,18.3  c15,13.9,25.2,33.9,24.1,54.7c-0.8,14.4-6.9,28.6-19.9,40.5c-4.1,3.6-8.4,6.7-12.8,9.9l-6.2-4.5C47.1,110,37,94.8,35.9,75.4  c-0.8-15,4.3-29.6,12.8-41.8c6.2,3.5,11.7,8.3,16,13.9c-5.1,7.9-8.3,17.3-7.8,26.8C57.4,82.9,61,91.5,68.6,99  c7.6-7.5,11.2-16.1,11.7-24.7c0.8-15.3-7.8-30-19.1-39.7c-10.9-9.3-25-14.7-39.4-13.4c1.2,13.3,4.4,25.3,9.4,36.2  c-1.4,6-1.9,12.1-1.6,18.3C30.1,84.7,32.4,93,36.1,100.5"></path></svg>