<svg xmlns="http://www.w3.org/2000/svg" xmlns:xlink="http://www.w3.org/1999/xlink" x="0px" y="0px" viewBox="0 0 100 70.7" style="enable-background:new 0 0 100 70.7;backgorund-color:#000" xml:space="preserve" fill="#BCBEC0"><style type="text/css">	.st2 { animation: moveTop 13.5s infinite linear; }	.l2 { animation-delay: 0.5s; }	.l3 { animation-delay: 1s; }	.l4 { animation-delay: 1.5s; }	.l5 { animation-delay: 2s; }	.l6 { animation-delay: 2.5s; }	.l7 { animation-delay: 3s; }	.l8 { animation-delay: 3.5s; }	.l9 { animation-delay: 4s; }	.l10 { animation-delay: 4.5s; }	.l11 { animation-delay: 5s; }	.l12 { animation-delay: 5.5s; }	.l13 { animation-delay: 6s; }	.l14 { animation-delay: 6.5s; }	.l15 { animation-delay: 7s; }	.l16 { animation-delay: 7.5s; }	.l18 { animation-delay: 8s; }	.l19 { animation-delay: 8.5s; }	.l20 { animation-delay: 9s; }	.l21 { animation-delay: 9.5s; }	.l22 { animation-delay: 10s; }	.l23 { animation-delay: 10.5s; }	.l24 { animation-delay: 11s; }	.l25 { animation-delay: 11.5s; }	.l26 { animation-delay: 12s; }	.l28 { animation-delay: 12.5s; }	.l29 { animation-delay: 13s; }	.l30 { animation-delay: 13.5s; }	@keyframes moveTop { to { transform: translateY(-40px) } }</style>	<path class="st2 l1" d="M123.4,88.1c-9.4-10.3-21.3-17.2-35.5-15.6c-19.2,2.1-35.6,15.1-52.5,23.4c-8.5,4.2-17.7,7.9-27.4,8      c-12.7,0.1-23.1-6.7-31.5-15.8c0-0.2,0-0.3,0-0.5c8.3,9.1,18.8,16,31.5,15.8c9.6-0.1,18.9-3.8,27.4-8      C52.3,87.1,68.7,74.2,87.9,72c14.3-1.6,26.1,5.3,35.5,15.6C123.4,87.8,123.4,87.9,123.4,88.1z"></path>	<path class="st2 l2" d="M123.4,88.1c-9.4-10.3-21.3-17.2-35.5-15.6c-19.2,2.1-35.6,15.1-52.5,23.4c-8.5,4.2-17.7,7.9-27.4,8      c-12.7,0.1-23.1-6.7-31.5-15.8c0-0.2,0-0.3,0-0.5c8.3,9.1,18.8,16,31.5,15.8c9.6-0.1,18.9-3.8,27.4-8      C52.3,87.1,68.7,74.2,87.9,72c14.3-1.6,26.1,5.3,35.5,15.6C123.4,87.8,123.4,87.9,123.4,88.1z"></path>	<path class="st2 l3" d="M123.4,88.1c-9.4-10.3-21.3-17.2-35.5-15.6c-19.2,2.1-35.6,15.1-52.5,23.4c-8.5,4.2-17.7,7.9-27.4,8      c-12.7,0.1-23.1-6.7-31.5-15.8c0-0.2,0-0.3,0-0.5c8.3,9.1,18.8,16,31.5,15.8c9.6-0.1,18.9-3.8,27.4-8      C52.3,87.1,68.7,74.2,87.9,72c14.3-1.6,26.1,5.3,35.5,15.6C123.4,87.8,123.4,87.9,123.4,88.1z"></path>	<path class="st2 l4" d="M123.4,88.1c-9.4-10.3-21.3-17.2-35.5-15.6c-19.2,2.1-35.6,15.1-52.5,23.4c-8.5,4.2-17.7,7.9-27.4,8      c-12.7,0.1-23.1-6.7-31.5-15.8c0-0.2,0-0.3,0-0.5c8.3,9.1,18.8,16,31.5,15.8c9.6-0.1,18.9-3.8,27.4-8      C52.3,87.1,68.7,74.2,87.9,72c14.3-1.6,26.1,5.3,35.5,15.6C123.4,87.8,123.4,87.9,123.4,88.1z"></path>	<path class="st2 l5" d="M123.4,88.1c-9.4-10.3-21.3-17.2-35.5-15.6c-19.2,2.1-35.6,15.1-52.5,23.4c-8.5,4.2-17.7,7.9-27.4,8      c-12.7,0.1-23.1-6.7-31.5-15.8c0-0.2,0-0.3,0-0.5c8.3,9.1,18.8,16,31.5,15.8c9.6-0.1,18.9-3.8,27.4-8      C52.3,87.1,68.7,74.2,87.9,72c14.3-1.6,26.1,5.3,35.5,15.6C123.4,87.8,123.4,87.9,123.4,88.1z"></path>	<path class="st2 l6" d="M123.4,88.1c-9.4-10.3-21.3-17.2-35.5-15.6c-19.2,2.1-35.6,15.1-52.5,23.4c-8.5,4.2-17.7,7.9-27.4,8      c-12.7,0.1-23.1-6.7-31.5-15.8c0-0.2,0-0.3,0-0.5c8.3,9.1,18.8,16,31.5,15.8c9.6-0.1,18.9-3.8,27.4-8      C52.3,87.1,68.7,74.2,87.9,72c14.3-1.6,26.1,5.3,35.5,15.6C123.4,87.8,123.4,87.9,123.4,88.1z"></path>	<path class="st2 l7" d="M123.4,88.1c-9.4-10.3-21.3-17.2-35.5-15.6c-19.2,2.1-35.6,15.1-52.5,23.4c-8.5,4.2-17.7,7.9-27.4,8      c-12.7,0.1-23.1-6.7-31.5-15.8c0-0.2,0-0.3,0-0.5c8.3,9.1,18.8,16,31.5,15.8c9.6-0.1,18.9-3.8,27.4-8      C52.3,87.1,68.7,74.2,87.9,72c14.3-1.6,26.1,5.3,35.5,15.6C123.4,87.8,123.4,87.9,123.4,88.1z"></path>	<path class="st2 l8" d="M123.4,88.1c-9.4-10.3-21.3-17.2-35.5-15.6c-19.2,2.1-35.6,15.1-52.5,23.4c-8.5,4.2-17.7,7.9-27.4,8      c-12.7,0.1-23.1-6.7-31.5-15.8c0-0.2,0-0.3,0-0.5c8.3,9.1,18.8,16,31.5,15.8c9.6-0.1,18.9-3.8,27.4-8      C52.3,87.1,68.7,74.2,87.9,72c14.3-1.6,26.1,5.3,35.5,15.6C123.4,87.8,123.4,87.9,123.4,88.1z"></path>	<path class="st2 l9" d="M123.4,88.1c-9.4-10.3-21.3-17.2-35.5-15.6c-19.2,2.1-35.6,15.1-52.5,23.4c-8.5,4.2-17.7,7.9-27.4,8      c-12.7,0.1-23.1-6.7-31.5-15.8c0-0.2,0-0.3,0-0.5c8.3,9.1,18.8,16,31.5,15.8c9.6-0.1,18.9-3.8,27.4-8      C52.3,87.1,68.7,74.2,87.9,72c14.3-1.6,26.1,5.3,35.5,15.6C123.4,87.8,123.4,87.9,123.4,88.1z"></path>	<path class="st2 l10" d="M123.4,88.1c-9.4-10.3-21.3-17.2-35.5-15.6c-19.2,2.1-35.6,15.1-52.5,23.4c-8.5,4.2-17.7,7.9-27.4,8      c-12.7,0.1-23.1-6.7-31.5-15.8c0-0.2,0-0.3,0-0.5c8.3,9.1,18.8,16,31.5,15.8c9.6-0.1,18.9-3.8,27.4-8      C52.3,87.1,68.7,74.2,87.9,72c14.3-1.6,26.1,5.3,35.5,15.6C123.4,87.8,123.4,87.9,123.4,88.1z"></path>	<path class="st2 l11" d="M123.4,88.1c-9.4-10.3-21.3-17.2-35.5-15.6c-19.2,2.1-35.6,15.1-52.5,23.4c-8.5,4.2-17.7,7.9-27.4,8      c-12.7,0.1-23.1-6.7-31.5-15.8c0-0.2,0-0.3,0-0.5c8.3,9.1,18.8,16,31.5,15.8c9.6-0.1,18.9-3.8,27.4-8      C52.3,87.1,68.7,74.2,87.9,72c14.3-1.6,26.1,5.3,35.5,15.6C123.4,87.8,123.4,87.9,123.4,88.1z"></path>	<path class="st2 l12" d="M123.4,88.1c-9.4-10.3-21.3-17.2-35.5-15.6c-19.2,2.1-35.6,15.1-52.5,23.4c-8.5,4.2-17.7,7.9-27.4,8      c-12.7,0.1-23.1-6.7-31.5-15.8c0-0.2,0-0.3,0-0.5c8.3,9.1,18.8,16,31.5,15.8c9.6-0.1,18.9-3.8,27.4-8      C52.3,87.1,68.7,74.2,87.9,72c14.3-1.6,26.1,5.3,35.5,15.6C123.4,87.8,123.4,87.9,123.4,88.1z"></path>	<path class="st2 l13" d="M123.4,88.1c-9.4-10.3-21.3-17.2-35.5-15.6c-19.2,2.1-35.6,15.1-52.5,23.4c-8.5,4.2-17.7,7.9-27.4,8      c-12.7,0.1-23.1-6.7-31.5-15.8c0-0.2,0-0.3,0-0.5c8.3,9.1,18.8,16,31.5,15.8c9.6-0.1,18.9-3.8,27.4-8      C52.3,87.1,68.7,74.2,87.9,72c14.3-1.6,26.1,5.3,35.5,15.6C123.4,87.8,123.4,87.9,123.4,88.1z"></path>	<path class="st2 l14" d="M123.4,88.1c-9.4-10.3-21.3-17.2-35.5-15.6c-19.2,2.1-35.6,15.1-52.5,23.4c-8.5,4.2-17.7,7.9-27.4,8      c-12.7,0.1-23.1-6.7-31.5-15.8c0-0.2,0-0.3,0-0.5c8.3,9.1,18.8,16,31.5,15.8c9.6-0.1,18.9-3.8,27.4-8      C52.3,87.1,68.7,74.2,87.9,72c14.3-1.6,26.1,5.3,35.5,15.6C123.4,87.8,123.4,87.9,123.4,88.1z"></path>	<path class="st2 l15" d="M123.4,88.1c-9.4-10.3-21.3-17.2-35.5-15.6c-19.2,2.1-35.6,15.1-52.5,23.4c-8.5,4.2-17.7,7.9-27.4,8      c-12.7,0.1-23.1-6.7-31.5-15.8c0-0.2,0-0.3,0-0.5c8.3,9.1,18.8,16,31.5,15.8c9.6-0.1,18.9-3.8,27.4-8      C52.3,87.1,68.7,74.2,87.9,72c14.3-1.6,26.1,5.3,35.5,15.6C123.4,87.8,123.4,87.9,123.4,88.1z"></path>	<path class="st2 l16" d="M123.4,88.1c-9.4-10.3-21.3-17.2-35.5-15.6c-19.2,2.1-35.6,15.1-52.5,23.4c-8.5,4.2-17.7,7.9-27.4,8      c-12.7,0.1-23.1-6.7-31.5-15.8c0-0.2,0-0.3,0-0.5c8.3,9.1,18.8,16,31.5,15.8c9.6-0.1,18.9-3.8,27.4-8      C52.3,87.1,68.7,74.2,87.9,72c14.3-1.6,26.1,5.3,35.5,15.6C123.4,87.8,123.4,87.9,123.4,88.1z"></path>	<path class="st2 l17" d="M123.4,88.1c-9.4-10.3-21.3-17.2-35.5-15.6c-19.2,2.1-35.6,15.1-52.5,23.4c-8.5,4.2-17.7,7.9-27.4,8      c-12.7,0.1-23.1-6.7-31.5-15.8c0-0.2,0-0.3,0-0.5c8.3,9.1,18.8,16,31.5,15.8c9.6-0.1,18.9-3.8,27.4-8      C52.3,87.1,68.7,74.2,87.9,72c14.3-1.6,26.1,5.3,35.5,15.6C123.4,87.8,123.4,87.9,123.4,88.1z"></path>	<path class="st2 l18" d="M123.4,88.1c-9.4-10.3-21.3-17.2-35.5-15.6c-19.2,2.1-35.6,15.1-52.5,23.4c-8.5,4.2-17.7,7.9-27.4,8      c-12.7,0.1-23.1-6.7-31.5-15.8c0-0.2,0-0.3,0-0.5c8.3,9.1,18.8,16,31.5,15.8c9.6-0.1,18.9-3.8,27.4-8      C52.3,87.1,68.7,74.2,87.9,72c14.3-1.6,26.1,5.3,35.5,15.6C123.4,87.8,123.4,87.9,123.4,88.1z"></path>	<path class="st2 l19" d="M123.4,88.1c-9.4-10.3-21.3-17.2-35.5-15.6c-19.2,2.1-35.6,15.1-52.5,23.4c-8.5,4.2-17.7,7.9-27.4,8      c-12.7,0.1-23.1-6.7-31.5-15.8c0-0.2,0-0.3,0-0.5c8.3,9.1,18.8,16,31.5,15.8c9.6-0.1,18.9-3.8,27.4-8      C52.3,87.1,68.7,74.2,87.9,72c14.3-1.6,26.1,5.3,35.5,15.6C123.4,87.8,123.4,87.9,123.4,88.1z"></path>	<path class="st2 l20" d="M123.4,88.1c-9.4-10.3-21.3-17.2-35.5-15.6c-19.2,2.1-35.6,15.1-52.5,23.4c-8.5,4.2-17.7,7.9-27.4,8      c-12.7,0.1-23.1-6.7-31.5-15.8c0-0.2,0-0.3,0-0.5c8.3,9.1,18.8,16,31.5,15.8c9.6-0.1,18.9-3.8,27.4-8      C52.3,87.1,68.7,74.2,87.9,72c14.3-1.6,26.1,5.3,35.5,15.6C123.4,87.8,123.4,87.9,123.4,88.1z"></path>	<path class="st2 l21" d="M123.4,88.1c-9.4-10.3-21.3-17.2-35.5-15.6c-19.2,2.1-35.6,15.1-52.5,23.4c-8.5,4.2-17.7,7.9-27.4,8      c-12.7,0.1-23.1-6.7-31.5-15.8c0-0.2,0-0.3,0-0.5c8.3,9.1,18.8,16,31.5,15.8c9.6-0.1,18.9-3.8,27.4-8      C52.3,87.1,68.7,74.2,87.9,72c14.3-1.6,26.1,5.3,35.5,15.6C123.4,87.8,123.4,87.9,123.4,88.1z"></path>	<path class="st2 l22" d="M123.4,88.1c-9.4-10.3-21.3-17.2-35.5-15.6c-19.2,2.1-35.6,15.1-52.5,23.4c-8.5,4.2-17.7,7.9-27.4,8      c-12.7,0.1-23.1-6.7-31.5-15.8c0-0.2,0-0.3,0-0.5c8.3,9.1,18.8,16,31.5,15.8c9.6-0.1,18.9-3.8,27.4-8      C52.3,87.1,68.7,74.2,87.9,72c14.3-1.6,26.1,5.3,35.5,15.6C123.4,87.8,123.4,87.9,123.4,88.1z"></path>	<path class="st2 l23" d="M123.4,88.1c-9.4-10.3-21.3-17.2-35.5-15.6c-19.2,2.1-35.6,15.1-52.5,23.4c-8.5,4.2-17.7,7.9-27.4,8      c-12.7,0.1-23.1-6.7-31.5-15.8c0-0.2,0-0.3,0-0.5c8.3,9.1,18.8,16,31.5,15.8c9.6-0.1,18.9-3.8,27.4-8      C52.3,87.1,68.7,74.2,87.9,72c14.3-1.6,26.1,5.3,35.5,15.6C123.4,87.8,123.4,87.9,123.4,88.1z"></path>	<path class="st2 l24" d="M123.4,88.1c-9.4-10.3-21.3-17.2-35.5-15.6c-19.2,2.1-35.6,15.1-52.5,23.4c-8.5,4.2-17.7,7.9-27.4,8      c-12.7,0.1-23.1-6.7-31.5-15.8c0-0.2,0-0.3,0-0.5c8.3,9.1,18.8,16,31.5,15.8c9.6-0.1,18.9-3.8,27.4-8      C52.3,87.1,68.7,74.2,87.9,72c14.3-1.6,26.1,5.3,35.5,15.6C123.4,87.8,123.4,87.9,123.4,88.1z"></path>	<path class="st2 l25" d="M123.4,88.1c-9.4-10.3-21.3-17.2-35.5-15.6c-19.2,2.1-35.6,15.1-52.5,23.4c-8.5,4.2-17.7,7.9-27.4,8      c-12.7,0.1-23.1-6.7-31.5-15.8c0-0.2,0-0.3,0-0.5c8.3,9.1,18.8,16,31.5,15.8c9.6-0.1,18.9-3.8,27.4-8      C52.3,87.1,68.7,74.2,87.9,72c14.3-1.6,26.1,5.3,35.5,15.6C123.4,87.8,123.4,87.9,123.4,88.1z"></path>	<path class="st2 l26" d="M123.4,88.1c-9.4-10.3-21.3-17.2-35.5-15.6c-19.2,2.1-35.6,15.1-52.5,23.4c-8.5,4.2-17.7,7.9-27.4,8      c-12.7,0.1-23.1-6.7-31.5-15.8c0-0.2,0-0.3,0-0.5c8.3,9.1,18.8,16,31.5,15.8c9.6-0.1,18.9-3.8,27.4-8      C52.3,87.1,68.7,74.2,87.9,72c14.3-1.6,26.1,5.3,35.5,15.6C123.4,87.8,123.4,87.9,123.4,88.1z"></path>	<path class="st2 l27" d="M123.4,88.1c-9.4-10.3-21.3-17.2-35.5-15.6c-19.2,2.1-35.6,15.1-52.5,23.4c-8.5,4.2-17.7,7.9-27.4,8      c-12.7,0.1-23.1-6.7-31.5-15.8c0-0.2,0-0.3,0-0.5c8.3,9.1,18.8,16,31.5,15.8c9.6-0.1,18.9-3.8,27.4-8      C52.3,87.1,68.7,74.2,87.9,72c14.3-1.6,26.1,5.3,35.5,15.6C123.4,87.8,123.4,87.9,123.4,88.1z"></path>	<path class="st2 l28" d="M123.4,88.1c-9.4-10.3-21.3-17.2-35.5-15.6c-19.2,2.1-35.6,15.1-52.5,23.4c-8.5,4.2-17.7,7.9-27.4,8      c-12.7,0.1-23.1-6.7-31.5-15.8c0-0.2,0-0.3,0-0.5c8.3,9.1,18.8,16,31.5,15.8c9.6-0.1,18.9-3.8,27.4-8      C52.3,87.1,68.7,74.2,87.9,72c14.3-1.6,26.1,5.3,35.5,15.6C123.4,87.8,123.4,87.9,123.4,88.1z"></path>	<path class="st2 l29" d="M123.4,88.1c-9.4-10.3-21.3-17.2-35.5-15.6c-19.2,2.1-35.6,15.1-52.5,23.4c-8.5,4.2-17.7,7.9-27.4,8      c-12.7,0.1-23.1-6.7-31.5-15.8c0-0.2,0-0.3,0-0.5c8.3,9.1,18.8,16,31.5,15.8c9.6-0.1,18.9-3.8,27.4-8      C52.3,87.1,68.7,74.2,87.9,72c14.3-1.6,26.1,5.3,35.5,15.6C123.4,87.8,123.4,87.9,123.4,88.1z"></path>	<path class="st2 l30" d="M123.4,88.1c-9.4-10.3-21.3-17.2-35.5-15.6c-19.2,2.1-35.6,15.1-52.5,23.4c-8.5,4.2-17.7,7.9-27.4,8      c-12.7,0.1-23.1-6.7-31.5-15.8c0-0.2,0-0.3,0-0.5c8.3,9.1,18.8,16,31.5,15.8c9.6-0.1,18.9-3.8,27.4-8      C52.3,87.1,68.7,74.2,87.9,72c14.3-1.6,26.1,5.3,35.5,15.6C123.4,87.8,123.4,87.9,123.4,88.1z"></path></svg>